<svg width="19" height="19" viewBox="0 0 19 19" fill="none" xmlns="http://www.w3.org/2000/svg">
<path d="M12.0174 2.0007C12.0174 1.5257 12.2131 1.0545 12.5475 0.720102C12.8838 0.385702 13.355 0.190002 13.8281 0.190002C14.3031 0.190002 14.7743 0.385702 15.1087 0.720102C15.445 1.0545 15.6388 1.5276 15.6388 2.0007C15.6388 2.4757 15.4431 2.9469 15.1087 3.2813C14.7743 3.6176 14.3012 3.8114 13.8281 3.8114C13.3531 3.8114 12.8819 3.6157 12.5475 3.2813C12.2131 2.9469 12.0174 2.4757 12.0174 2.0007ZM16.9878 8.0997C15.7756 7.9648 14.9339 7.9648 14.495 7.3245C14.058 6.6842 13.5184 5.776 13.5184 5.776C13.6533 5.5062 13.2486 4.6987 11.9699 3.8893C10.6893 3.0818 9.51131 3.1122 8.50051 3.4523C7.50681 3.7867 5.13181 4.9001 4.59411 5.6753C4.05451 6.4505 5.36931 6.7184 6.61571 5.9451C7.86211 5.1699 9.37831 4.7671 9.68041 5.3732C9.98441 5.9793 8.53471 7.8318 7.86211 8.5063C7.18761 9.1808 6.58151 10.4253 7.12111 10.7958C7.12111 10.7958 6.58151 11.3677 5.90891 12.1771C5.23441 12.9846 2.37301 12.3462 1.49711 12.5818C0.621215 12.8174 0.856814 14.098 1.53131 14.2652C2.20581 14.4343 5.53841 14.7706 6.58341 14.4666C7.62841 14.1626 8.71711 11.7515 8.71711 11.7515C9.64621 12.2493 10.8071 12.559 10.9268 13.1879C11.0617 13.8947 10.5221 15.9505 9.88371 16.9936C9.24341 18.0386 9.57971 19.2166 10.524 18.677C11.4664 18.1374 12.1751 16.758 12.8135 15.5116C13.4538 14.2652 14.3962 12.6825 13.3189 12.0764C12.2416 11.4703 10.1858 10.2923 11.0294 9.0459C11.7438 7.9895 11.9129 8.0693 12.3423 7.4974C12.3423 7.4974 12.9826 8.8787 13.7578 9.4506C14.533 10.0225 17.0581 9.652 17.6984 9.2492C18.3349 8.8407 18.2 8.2346 16.9878 8.0997Z" fill="#2D9CDB"/>
</svg>
