<svg width="18" height="20" viewBox="0 0 18 20" fill="none" xmlns="http://www.w3.org/2000/svg">
<path d="M2.03802 3.92201H4.02601C4.65801 1.77201 6.64802 0.200012 9.00002 0.200012C11.352 0.200012 13.342 1.77201 13.974 3.92201H15.962C17.042 3.92201 17.916 4.79801 17.916 5.87601L16.94 17.846C16.94 18.926 16.064 19.8 14.986 19.8H3.01601C1.93601 19.8 1.06201 18.924 1.06201 17.846L0.0840149 5.87601C0.0840149 4.79601 0.958015 3.92201 2.03802 3.92201ZM9.00002 1.61401C6.92002 1.61401 5.22802 3.30601 5.22802 5.38401C5.22802 7.46201 6.92002 9.15601 9.00002 9.15601C11.08 9.15601 12.77 7.46401 12.77 5.38401C12.77 3.30601 11.08 1.61401 9.00002 1.61401Z" fill="#2D9CDB"/>
<path d="M9.03197 6.30196C8.84597 6.30196 8.67597 6.23996 8.53597 6.13796V6.13996C8.53597 6.13996 8.52797 6.13196 8.52597 6.12996C8.44797 6.07196 8.37997 6.00196 8.32797 5.91996C7.79996 5.35596 6.45396 3.88396 6.61396 3.69396C6.78796 3.48996 8.80797 4.42796 9.32997 4.67396C9.36597 4.68796 9.40197 4.70596 9.43597 4.72396C9.44397 4.72796 9.45397 4.73196 9.45397 4.73196C9.70398 4.87796 9.87598 5.14596 9.87598 5.45796C9.87398 5.92396 9.49797 6.30196 9.03197 6.30196Z" fill="#2D9CDB"/>
</svg>
