<svg width="16" height="16" viewBox="0 0 16 16" fill="none" xmlns="http://www.w3.org/2000/svg">
<path d="M14.3348 1.73426C14.5619 1.73426 14.7596 1.8387 14.9296 2.04756C15.0995 2.25643 15.1659 2.48584 15.1273 2.7375L14.3348 8.84252C14.3101 9.05139 14.2252 9.22601 14.08 9.36469C13.9348 9.50336 13.7618 9.57355 13.5609 9.57355H4.65882L4.79012 10.4518H12.7685C12.9817 10.4518 13.167 10.5391 13.3246 10.7137C13.4822 10.8884 13.5609 11.0938 13.5609 11.3301C13.5609 11.5663 13.4822 11.7683 13.3246 11.9361C13.167 12.1039 12.9817 12.1878 12.7685 12.1878H4.13054C3.92972 12.1878 3.75672 12.1176 3.61152 11.9789C3.46631 11.8402 3.38135 11.6725 3.35664 11.4773L1.88608 1.73598H0.792432C0.579264 1.73598 0.393899 1.65209 0.23634 1.48431C0.0787798 1.31653 0 1.11452 0 0.87826C0 0.642003 0.0787798 0.436562 0.23634 0.261937C0.393899 0.0873125 0.579264 0 0.792432 0H2.54721C2.73567 0 2.90559 0.0701923 3.05697 0.208865C3.20835 0.347538 3.2964 0.522163 3.32111 0.731028L3.49103 1.73426H14.3348ZM13.4296 3.49078H10.4128V5.22676H13.2041L13.4296 3.49078ZM9.62041 3.49078H7.26165V5.22676H9.61886V3.49078H9.62041ZM9.62041 6.10331H7.26165V7.83929H9.61886V6.10331H9.62041ZM6.4893 3.49078H3.73509L4.01777 5.2473C4.04249 5.23361 4.0811 5.22676 4.13054 5.22676H6.48775V3.49078H6.4893ZM4.13054 6.10331L4.39468 7.83929H6.48775V6.10331H4.13054ZM10.4128 7.83929H12.8844L13.0914 6.10331H10.4128V7.83929ZM4.13054 14.362C4.13054 13.4975 4.5198 13.066 5.29988 13.066C6.09231 13.066 6.48775 13.4975 6.48775 14.362C6.48775 15.2403 6.09231 15.6786 5.29988 15.6786C4.52134 15.6786 4.13054 15.2403 4.13054 14.362ZM11.2037 14.362C11.2037 13.4975 11.593 13.066 12.3731 13.066C13.1655 13.066 13.5609 13.4975 13.5609 14.362C13.5609 15.2403 13.1655 15.6786 12.3731 15.6786C11.5945 15.6786 11.2037 15.2403 11.2037 14.362Z" fill="#F2F2F2"/>
</svg>
