<svg width="19" height="19" viewBox="0 0 19 19" fill="none" xmlns="http://www.w3.org/2000/svg">
<path d="M17.1756 19C1.97561 19 1.97561 19 1.97561 19C0.913163 19 0 18.0082 0 16.8527C0 4.12893 0 4.12893 0 4.12893C0 2.97152 0.913163 2.14727 1.97561 2.14727C3.8 2.14727 3.8 2.14727 3.8 2.14727C3.8 4.12893 3.8 4.12893 3.8 4.12893C7.6 4.12893 7.6 4.12893 7.6 4.12893C7.6 2.14727 7.6 2.14727 7.6 2.14727C11.4 2.14727 11.4 2.14727 11.4 2.14727C11.4 4.12893 11.4 4.12893 11.4 4.12893C15.2 4.12893 15.2 4.12893 15.2 4.12893C15.2 2.14727 15.2 2.14727 15.2 2.14727C17.1756 2.14727 17.1756 2.14727 17.1756 2.14727C18.24 2.14727 19 2.97344 19 4.12893C19 16.8527 19 16.8527 19 16.8527C19 18.0082 18.24 19 17.1756 19ZM17.1756 6.27813C1.97561 6.27813 1.97561 6.27813 1.97561 6.27813C1.97561 16.8527 1.97561 16.8527 1.97561 16.8527C17.1756 16.8527 17.1756 16.8527 17.1756 16.8527C17.1756 6.27813 17.1756 6.27813 17.1756 6.27813ZM4.71122 9.41719C2.88684 9.41719 2.88684 9.41719 2.88684 9.41719C2.88684 7.26992 2.88684 7.26992 2.88684 7.26992C4.71122 7.26992 4.71122 7.26992 4.71122 7.26992C4.71122 9.41719 4.71122 9.41719 4.71122 9.41719ZM4.71122 12.5563C2.88684 12.5563 2.88684 12.5563 2.88684 12.5563C2.88684 10.5727 2.88684 10.5727 2.88684 10.5727C4.71122 10.5727 4.71122 10.5727 4.71122 10.5727C4.71122 12.5563 4.71122 12.5563 4.71122 12.5563ZM4.71122 15.8609C2.88684 15.8609 2.88684 15.8609 2.88684 15.8609C2.88684 13.7137 2.88684 13.7137 2.88684 13.7137C4.71122 13.7137 4.71122 13.7137 4.71122 13.7137C4.71122 15.8609 4.71122 15.8609 4.71122 15.8609ZM7.6 9.41719C5.77561 9.41719 5.77561 9.41719 5.77561 9.41719C5.77561 7.26992 5.77561 7.26992 5.77561 7.26992C7.6 7.26992 7.6 7.26992 7.6 7.26992C7.6 9.41719 7.6 9.41719 7.6 9.41719ZM7.6 12.5563C5.77561 12.5563 5.77561 12.5563 5.77561 12.5563C5.77561 10.5727 5.77561 10.5727 5.77561 10.5727C7.6 10.5727 7.6 10.5727 7.6 10.5727C7.6 12.5563 7.6 12.5563 7.6 12.5563ZM7.6 15.8609C5.77561 15.8609 5.77561 15.8609 5.77561 15.8609C5.77561 13.7137 5.77561 13.7137 5.77561 13.7137C7.6 13.7137 7.6 13.7137 7.6 13.7137C7.6 15.8609 7.6 15.8609 7.6 15.8609ZM10.4868 9.41719C8.51122 9.41719 8.51122 9.41719 8.51122 9.41719C8.51122 7.26992 8.51122 7.26992 8.51122 7.26992C10.4868 7.26992 10.4868 7.26992 10.4868 7.26992C10.4868 9.41719 10.4868 9.41719 10.4868 9.41719ZM10.4868 12.5563C8.51122 12.5563 8.51122 12.5563 8.51122 12.5563C8.51122 10.5727 8.51122 10.5727 8.51122 10.5727C10.4868 10.5727 10.4868 10.5727 10.4868 10.5727C10.4868 12.5563 10.4868 12.5563 10.4868 12.5563ZM10.4868 15.8609C8.51122 15.8609 8.51122 15.8609 8.51122 15.8609C8.51122 13.7137 8.51122 13.7137 8.51122 13.7137C10.4868 13.7137 10.4868 13.7137 10.4868 13.7137C10.4868 15.8609 10.4868 15.8609 10.4868 15.8609ZM13.3756 9.41719C11.4 9.41719 11.4 9.41719 11.4 9.41719C11.4 7.26992 11.4 7.26992 11.4 7.26992C13.3756 7.26992 13.3756 7.26992 13.3756 7.26992C13.3756 9.41719 13.3756 9.41719 13.3756 9.41719ZM13.3756 12.5563C11.4 12.5563 11.4 12.5563 11.4 12.5563C11.4 10.5727 11.4 10.5727 11.4 10.5727C13.3756 10.5727 13.3756 10.5727 13.3756 10.5727C13.3756 12.5563 13.3756 12.5563 13.3756 12.5563ZM13.3756 15.8609C11.4 15.8609 11.4 15.8609 11.4 15.8609C11.4 13.7137 11.4 13.7137 11.4 13.7137C13.3756 13.7137 13.3756 13.7137 13.3756 13.7137C13.3756 15.8609 13.3756 15.8609 13.3756 15.8609ZM16.2644 9.41719C14.2888 9.41719 14.2888 9.41719 14.2888 9.41719C14.2888 7.26992 14.2888 7.26992 14.2888 7.26992C16.2644 7.26992 16.2644 7.26992 16.2644 7.26992C16.2644 9.41719 16.2644 9.41719 16.2644 9.41719ZM16.2644 12.5563C14.2888 12.5563 14.2888 12.5563 14.2888 12.5563C14.2888 10.5727 14.2888 10.5727 14.2888 10.5727C16.2644 10.5727 16.2644 10.5727 16.2644 10.5727C16.2644 12.5563 16.2644 12.5563 16.2644 12.5563ZM16.2644 15.8609C14.2888 15.8609 14.2888 15.8609 14.2888 15.8609C14.2888 13.7137 14.2888 13.7137 14.2888 13.7137C16.2644 13.7137 16.2644 13.7137 16.2644 13.7137C16.2644 15.8609 16.2644 15.8609 16.2644 15.8609ZM12.4644 0C14.2888 0 14.2888 0 14.2888 0C14.2888 3.13906 14.2888 3.13906 14.2888 3.13906C12.4644 3.13906 12.4644 3.13906 12.4644 3.13906C12.4644 0 12.4644 0 12.4644 0ZM4.71122 0C6.68684 0 6.68684 0 6.68684 0C6.68684 3.13906 6.68684 3.13906 6.68684 3.13906C4.71122 3.13906 4.71122 3.13906 4.71122 3.13906C4.71122 0 4.71122 0 4.71122 0Z" fill="#2D9CDB"/>
</svg>
