<svg width="35" height="35" viewBox="0 0 35 35" fill="none" xmlns="http://www.w3.org/2000/svg">
<path d="M15.9745 0.0581284C15.3218 0.119408 14.1179 0.323204 14.016 0.384483C13.9141 0.452415 13.4719 1.90106 13.3223 2.69664C13.1522 3.58081 13.1389 4.74372 13.2884 5.40308C13.5741 6.62026 14.2268 7.4295 16.0971 8.85083C16.7568 9.35402 17.4911 9.95946 17.7155 10.1972C18.1305 10.6258 18.627 11.3262 18.627 11.4827C18.627 11.5916 18.7765 11.5167 19.1915 11.2106C19.382 11.0611 20.0484 10.6325 20.6675 10.2518C22.4831 9.13657 23.1361 8.56544 23.5577 7.73555C24.2787 6.31422 24.0336 4.04968 22.898 1.60131C22.6259 1.00988 22.6193 1.00288 22.2453 0.867015C20.3947 0.173683 17.9943 -0.139016 15.9745 0.0581284Z" fill="#27AE60"/>
<path d="M12.3703 0.228312C11.6969 0.411799 10.9423 0.935648 10.1331 1.7855C9.50069 2.45187 9.2083 3.03 9.21495 3.62178C9.21495 4.17925 9.38514 4.51961 10.0378 5.27422C10.9014 6.2673 11.2144 6.99494 11.2144 7.97401C11.2144 8.53848 11.1055 9.08264 10.7588 10.2455C10.4325 11.3675 10.4122 11.9932 10.6839 12.585C10.8334 12.9047 10.915 13 11.1258 13.0816C12.6627 13.714 13.6761 14.319 14.5056 15.1013L14.9815 15.5502L15.5054 15.0467C15.7978 14.768 16.2057 14.4346 16.4098 14.2917C16.7022 14.1012 16.8451 13.9447 17.0356 13.5914C17.1715 13.3466 17.3959 12.986 17.5458 12.7888C17.6887 12.5917 17.8112 12.3809 17.8112 12.3059C17.8112 12.0951 17.3486 11.3944 16.9067 10.9459C16.6756 10.7078 15.941 10.1027 15.2813 9.59949C13.5878 8.30737 12.9078 7.54576 12.4589 6.44413C12.1599 5.70283 12.0849 5.15201 12.1189 4.03008C12.1462 2.92145 12.323 1.97635 12.7107 0.827098C12.8262 0.500742 12.9148 0.208352 12.9148 0.174036C12.9141 0.0991001 12.8122 0.112757 12.3703 0.228312Z" fill="#27AE60"/>
<path d="M24.1418 1.63603C25.291 4.44473 25.3863 6.86578 24.3932 8.53853C24.0262 9.15728 23.176 9.9462 22.1899 10.5786C20 11.9933 19.66 12.2177 19.3336 12.5031C19.1431 12.6663 18.8984 12.8974 18.8031 13.02L18.6196 13.2374L18.946 13.1355C19.1228 13.0813 19.6194 12.9587 20.0476 12.8705C24.4818 11.9253 27.8003 10.1367 29.2966 7.89913L29.6366 7.38893L29.4258 6.79715C29.3169 6.47079 29.1268 6.02188 29.0178 5.79742C28.1337 4.02943 26.2435 2.20681 24.2304 1.18677L23.8833 1.00993L24.1418 1.63603Z" fill="#27AE60"/>
<path d="M8.52104 1.69029C7.48069 2.35001 6.09333 3.67609 5.32471 4.74375C4.5631 5.79776 3.87607 7.11018 3.43416 8.33437L3.25732 8.83756L3.40019 9.0347C3.77417 9.5582 5.31806 10.7418 6.38572 11.3265C7.19496 11.7685 9.39156 12.639 9.48015 12.5574C9.4868 12.5437 9.4735 12.3532 9.43918 12.1291C9.35759 11.6123 9.45283 10.9049 9.75188 9.87125C10.357 7.74259 10.2687 7.16481 9.13313 5.893C8.8544 5.5803 8.5347 5.13804 8.42579 4.91358C7.93626 3.92086 8.01785 2.85985 8.67056 1.83281C8.79977 1.64232 8.88802 1.47914 8.88136 1.47914C8.86806 1.47949 8.71153 1.57474 8.52104 1.69029Z" fill="#27AE60"/>
<path d="M30.6431 7.76323C29.2151 10.5446 25.6718 12.7006 20.7484 13.7952C20.0481 13.9517 19.2182 14.1692 18.8988 14.2781C17.7769 14.6724 16.8248 15.2642 16.0495 16.0597L15.6755 16.4337L15.9203 16.9303C16.7499 18.5897 16.8791 20.6434 16.3146 23.0169C16.2397 23.3366 16.1787 23.629 16.1787 23.6766C16.1787 23.7445 16.607 24.3769 17.253 25.2747L17.3686 25.4313L17.8854 24.7649C21.3605 20.2288 26.522 17.216 31.9149 16.5496C32.3978 16.4884 32.7444 16.4138 32.7784 16.3661C32.9689 16.0531 32.9959 13.1085 32.8124 12.0885C32.5879 10.7897 32.2682 9.74903 31.7787 8.70168C31.4656 8.02831 31.0237 7.26004 30.9488 7.26004C30.9222 7.26004 30.786 7.49115 30.6431 7.76323Z" fill="#27AE60"/>
<path d="M1.46191 9.04167C1.31904 11.0614 1.46191 13.9381 1.78161 15.7267L1.93113 16.5359L2.59085 16.6175C5.12746 16.9372 8.01074 17.8281 10.2346 18.984C11.8601 19.8342 13.0703 20.6774 14.4577 21.9355L15.2806 22.6905L15.3961 22.0987C15.5663 21.1942 15.6069 19.8681 15.4711 19.1132C15.1244 17.1207 14.0021 15.7131 11.9144 14.6587C11.0712 14.2304 10.4388 13.9853 9.01747 13.5501C6.97039 12.9243 5.35191 12.1151 3.97155 11.0338C3.30519 10.5099 2.31211 9.48988 1.8702 8.87114C1.69337 8.61937 1.53684 8.41557 1.53019 8.41557C1.51653 8.41627 1.48922 8.695 1.46191 9.04167Z" fill="#27AE60"/>
<path d="M0.238114 18.1478C0.748308 19.5215 1.6661 21.2352 2.59789 22.5546C4.99164 25.9208 8.66384 28.6139 12.5402 29.8448C13.0297 29.9943 13.5329 30.1711 13.6621 30.2324C14.1653 30.4772 14.5326 31.5585 14.5939 33.0001C14.6142 33.5849 14.6619 33.9386 14.7231 34.0405L14.8184 34.19H17.2531C18.6065 34.19 19.7218 34.1627 19.7761 34.1287C19.844 34.0811 19.885 33.9113 19.9053 33.5982C19.9256 33.2106 20.0208 32.9115 20.5174 31.66C20.9253 30.64 21.1498 30.1638 21.245 30.1165C21.3199 30.0755 21.7822 29.9057 22.265 29.7355C24.1146 29.0828 26.4541 27.777 28.0116 26.5325C29.9362 24.9887 31.7791 22.8057 32.9896 20.6228C33.5814 19.5688 34.4043 17.6442 34.309 17.549C34.2411 17.4741 31.9629 17.6579 31.1061 17.8008C27.93 18.3379 24.8836 19.7186 22.2994 21.7927C20.9936 22.84 19.3138 24.615 18.3414 25.9684L17.9538 26.5192L18.2532 27.1243C18.6408 27.8929 19.0214 28.845 19.3345 29.8311C19.5929 30.647 19.6202 30.8578 19.5113 31.062C19.3685 31.3274 18.845 31.368 18.6475 31.1232C18.6065 31.0686 18.4773 30.7083 18.3551 30.314C17.0966 26.2065 14.8387 23.1328 11.4522 20.9362C8.54163 19.0386 4.51541 17.7668 0.77527 17.556L0 17.5084L0.238114 18.1478Z" fill="#27AE60"/>
</svg>
