<svg width="35" height="35" viewBox="0 0 35 35" fill="none" xmlns="http://www.w3.org/2000/svg">
<path d="M28.848 0.408421C28.2771 0.703823 27.2163 1.73142 26.5649 2.61097C25.4166 4.16882 24.53 6.25062 24.2952 7.95617C24.2549 8.27187 24.2147 8.54032 24.208 8.54697C24.208 8.55362 24.0134 8.46647 23.7782 8.35902C22.9991 7.98977 22.4353 7.87567 21.3877 7.86867C19.3598 7.86867 17.9091 8.56027 16.3782 10.2795L15.7804 10.9445L16.2973 11.4684C16.8748 12.0459 16.942 12.2542 16.6533 12.5629C16.3712 12.8649 16.143 12.7981 15.6124 12.2608C15.3572 11.999 15.122 11.7908 15.0954 11.7908C15.0751 11.7908 14.827 12.0526 14.5515 12.3749L14.0479 12.9657L15.2498 14.1813C16.277 15.2155 16.4517 15.4238 16.4517 15.5981C16.4517 15.8802 16.1832 16.1553 15.9078 16.1553C15.7132 16.1553 15.5518 16.0209 14.5379 15.0136C13.9068 14.3822 13.3696 13.8719 13.3493 13.8719C13.329 13.8719 13.0941 14.1403 12.8323 14.4697L12.3556 15.0675L12.819 15.5176C13.4973 16.1756 13.5778 16.5049 13.1347 16.8003C12.8729 16.9683 12.658 16.8742 12.1407 16.3772C11.7445 15.9943 11.6707 15.9407 11.5902 16.0279C11.5433 16.0814 11.3147 16.3635 11.0865 16.6523L10.6634 17.1829L12.3287 18.8482C13.8127 20.3322 13.9873 20.5338 13.9873 20.7284C13.9873 20.9902 13.7119 21.259 13.4501 21.259C13.2688 21.259 12.9867 21.0105 11.0326 19.0834C10.4684 18.5258 9.9984 18.0894 9.9851 18.103C9.59555 18.5797 6.6209 22.5484 6.04305 23.3544L5.8215 23.6768L6.2982 24.1738C6.7147 24.5969 6.78155 24.7044 6.78155 24.9056C6.78155 25.0803 6.73465 25.1811 6.6069 25.2819C6.30485 25.5171 6.1435 25.4632 5.63985 24.9865L5.18975 24.5434L3.93395 26.4103L2.6848 28.2705L3.96055 29.5529C5.062 30.6544 5.2363 30.8556 5.2363 31.0369C5.2363 31.3054 4.97449 31.5539 4.6924 31.5539C4.51775 31.5539 4.32315 31.3929 3.31585 30.3856C2.3691 29.4455 2.1339 29.2372 2.08035 29.3177C1.54975 30.1168 0.421695 32.3865 0.367795 32.7761C0.220095 33.7498 0.978895 34.6363 1.9729 34.643C2.32885 34.6496 2.48985 34.6027 3.081 34.3343C4.4978 33.7029 6.9086 32.2661 9.29945 30.6274L10.4747 29.8284L9.43385 28.7805C8.31245 27.6524 8.25855 27.5583 8.534 27.209C8.6348 27.0746 8.7286 27.0343 8.9169 27.0343C9.1451 27.0343 9.23925 27.1148 10.2465 28.1155L11.3343 29.2033L11.8313 28.8473C13.5369 27.6185 14.7055 26.7319 14.7055 26.6647C14.7055 26.6311 14.2488 26.1411 13.6982 25.5902C12.8789 24.7709 12.6909 24.5493 12.6909 24.395C12.6909 24.1332 12.9594 23.878 13.2348 23.878C13.4294 23.878 13.5841 24.0124 14.5375 24.9592L15.6253 26.0337L17.1968 24.8181C18.0631 24.1465 18.8219 23.542 18.8891 23.4818C19.0032 23.3677 18.936 23.2872 17.291 21.6083C15.7933 20.0774 15.5784 19.8289 15.5784 19.6476C15.5784 19.3858 15.8402 19.1103 16.0954 19.1103C16.2431 19.1103 16.5924 19.426 18.0697 20.8967C19.0567 21.8837 19.8897 22.6695 19.93 22.6425C20.1179 22.5284 23.0124 20.111 24.06 19.1975L25.2619 18.1499L23.8314 16.7198C22.5623 15.4507 22.4076 15.2694 22.4076 15.0745C22.4076 14.9201 22.4615 14.8127 22.5889 14.6982C22.9515 14.3895 23.0121 14.4298 24.523 15.9337C25.4229 16.8336 25.9398 17.3036 25.9871 17.2567C26.175 17.0688 26.6857 16.0412 26.86 15.5039C27.2898 14.1743 27.2628 12.8985 26.7861 11.6025C26.7123 11.4009 26.6115 11.1594 26.5579 11.0519C26.4505 10.837 26.4302 10.8503 27.1288 10.7499C28.5928 10.535 30.5602 9.74257 32.0309 8.76222C33.1054 8.05032 34.65 6.40532 34.65 5.97552C34.65 5.68012 34.5089 5.64652 33.2129 5.65317C32.5346 5.65317 31.8633 5.68677 31.6953 5.72702C31.5339 5.77392 31.3862 5.79422 31.3729 5.78057C31.3596 5.77392 31.487 5.52542 31.655 5.23002C32.2122 4.27662 32.7026 2.82587 32.5549 2.56407C32.4677 2.40973 32.1317 2.42967 31.494 2.62462C30.829 2.83952 30.1847 3.12827 29.6607 3.44397C29.4458 3.57172 29.2579 3.66552 29.2442 3.65222C29.2306 3.63892 29.2509 3.51117 29.2845 3.36347C29.3786 2.99422 29.4322 1.14727 29.365 0.784672C29.2911 0.401421 29.1164 0.274021 28.848 0.408421ZM20.8701 16.0349C21.5886 16.7468 22.22 17.4317 22.2669 17.5525C22.3474 17.7404 22.3474 17.7943 22.2669 17.9623C22.1259 18.2378 21.8238 18.3452 21.582 18.2175C21.4745 18.1569 20.8029 17.5259 20.098 16.814C18.9496 15.659 18.8019 15.4843 18.8019 15.2897C18.8019 15.1487 18.8625 15.0143 18.9699 14.9138C19.0707 14.8064 19.2051 14.7458 19.3462 14.7458C19.5404 14.7455 19.7151 14.8932 20.8701 16.0349ZM19.8897 18.8888C20.6821 19.6812 20.8165 19.8425 20.8165 20.0238C20.8165 20.2926 20.5547 20.5408 20.2726 20.5408C20.098 20.5408 19.93 20.4064 19.1579 19.6276C18.3788 18.8555 18.2447 18.6875 18.2447 18.5129C18.2447 18.2308 18.4932 17.969 18.7617 17.969C18.936 17.9686 19.1106 18.1097 19.8897 18.8888ZM9.81675 23.9925C11.2136 25.3893 11.2941 25.5167 10.9987 25.8594C10.8779 25.9938 10.7705 26.0473 10.6158 26.0473C10.4212 26.0473 10.2465 25.8996 9.09155 24.7446C7.9901 23.6432 7.78885 23.415 7.78885 23.247C7.78885 22.9649 8.02405 22.7367 8.31945 22.7367C8.53435 22.7367 8.6551 22.8375 9.81675 23.9925Z" fill="#F2994A"/>
</svg>
