<svg width="34" height="34" viewBox="0 0 34 34" fill="none" xmlns="http://www.w3.org/2000/svg">
<path d="M16.2999 0.442632C15.9613 0.566392 15.3299 0.963511 15.1735 1.15221C15.1018 1.23041 15.2453 1.39973 16.046 2.20043L17.0031 3.15753L17.9666 2.19397L18.9237 1.23041L18.6633 1.00261C17.986 0.416791 17.016 0.188652 16.2999 0.442632Z" fill="#F2C94C"/>
<path d="M14.2492 2.22017C13.9625 2.61083 13.6436 3.14463 13.3376 3.75017L13.0381 4.34245L13.7347 5.03265L14.4314 5.72931L15.3297 4.83103C15.8179 4.34279 16.2215 3.90657 16.2215 3.87393C16.2215 3.83483 15.8179 3.39861 15.3168 2.90391L14.4185 2.00563L14.2492 2.22017Z" fill="#F2C94C"/>
<path d="M18.6829 2.97528C18.1882 3.46352 17.7847 3.88036 17.7847 3.89974C17.7847 3.92592 18.1882 4.34242 18.6829 4.83712L19.5748 5.72894L20.2585 5.0452L20.9419 4.355L20.5642 3.63896C20.1932 2.92292 19.6723 2.08312 19.6071 2.08312C19.588 2.08312 19.1712 2.48704 18.6829 2.97528Z" fill="#F2C94C"/>
<path d="M16.0722 5.58582L15.1804 6.47764L16.092 7.38918L17.0035 8.30072L17.915 7.38918L18.8266 6.47764L17.9348 5.58582C17.4401 5.09112 17.0232 4.68754 17.0038 4.68754C16.9845 4.68754 16.5669 5.09112 16.0722 5.58582Z" fill="#F2C94C"/>
<path d="M12.4459 5.76811C12.1334 6.58853 11.6646 8.10527 11.6907 8.18347C11.7101 8.22903 11.7625 8.26813 11.808 8.26813C11.8536 8.26813 12.2963 7.86455 12.791 7.36985L13.6828 6.47803L13.1361 5.93131L12.5894 5.39105L12.4459 5.76811Z" fill="#F2C94C"/>
<path d="M20.8248 5.93736L20.3301 6.47762L21.157 7.31096C21.6126 7.76656 22.0097 8.13138 22.0423 8.11812C22.2572 8.04638 22.231 7.8706 21.8274 6.64694C21.5996 5.96354 21.3912 5.40356 21.3654 5.40356C21.3395 5.40356 21.0917 5.64428 20.8248 5.93736Z" fill="#F2C94C"/>
<path d="M13.5006 8.15724L12.5762 9.08171L13.4877 9.99324L14.3993 10.9048L15.3302 9.97386L16.2546 9.04941L15.3431 8.13787L14.4316 7.22632L13.5006 8.15724Z" fill="#F2C94C"/>
<path d="M18.663 8.13788C18.1683 8.63258 17.7776 9.0688 17.8035 9.09498C17.8296 9.12116 18.2135 9.50502 18.6497 9.9477L19.444 10.7419L20.3555 9.8304L21.267 8.91886L20.4208 8.0726L19.5745 7.22634L18.663 8.13788Z" fill="#F2C94C"/>
<path d="M4.07364 9.86304C3.96314 10.0324 3.96314 10.0453 4.29498 10.475C4.54896 10.8137 4.97192 11.6338 5.19326 12.2199C5.66212 13.4633 6.00722 15.4618 6.39108 19.1729C6.76202 22.747 7.10066 24.7652 7.60182 26.3666C8.03804 27.76 8.60448 28.7623 9.4963 29.6867C10.1797 30.4092 10.707 30.7934 11.6383 31.2558C12.3934 31.6336 12.4325 31.6594 12.5043 31.9134C12.9208 33.2999 16.5666 34.1074 19.2033 33.3978C20.4858 33.0463 21.3582 32.2391 21.5275 31.2494C21.5666 31.0151 21.5993 30.9825 22.2956 30.5983C23.6369 29.8561 24.7501 28.9381 25.4855 27.9745C26.6704 26.4251 27.2562 24.2376 27.7121 19.6608C28.2133 14.622 28.3632 13.6194 28.8644 12.1482C29.0531 11.5753 29.4699 10.7681 29.7691 10.3645C30.036 10.013 30.0622 9.81782 29.8538 9.73962C29.7953 9.7199 29.4111 9.77872 28.9943 9.86984C24.9578 10.7681 21.8199 13.0077 19.3526 16.7511C19.0993 17.1414 18.761 17.7014 18.5981 17.9877C18.4352 18.3001 18.1619 18.6714 17.9535 18.8795C17.5954 19.2246 17.5954 19.2311 17.7127 19.3677C17.83 19.498 17.8232 19.5109 17.6084 19.9797L17.3806 20.4551L17.1266 20.2075L16.8726 19.96L16.0066 20.8192L15.1474 21.6787L15.7921 22.3234L16.4367 22.9745L16.2871 23.528C16.2089 23.834 16.1178 24.088 16.0984 24.088C16.079 24.088 15.6884 23.717 15.2324 23.2611L14.3991 22.4277L13.4876 23.3393L12.576 24.2508L13.5005 25.1753L14.4314 26.1062L15.2386 25.3055C15.6812 24.8693 16.0263 24.5568 16.0066 24.6153C15.9872 24.6738 15.8764 25.1035 15.7659 25.5591C15.5966 26.2623 15.5316 26.4316 15.3623 26.6074L15.1539 26.8222L15.297 26.9718C15.4337 27.1214 15.4402 27.1282 15.3426 27.675C15.2906 27.9745 15.245 28.2479 15.245 28.287C15.245 28.3196 15.0757 28.1829 14.8676 27.9745C14.6592 27.7725 14.464 27.6032 14.4314 27.6032C14.3988 27.6032 13.7936 28.1761 13.0969 28.8728L11.8273 30.1423L11.5407 29.6803L11.2544 29.2179L12.472 28.0003L13.6831 26.7896L12.7715 25.8781L11.86 24.9665L11.0855 25.7414C10.2195 26.6074 10.3106 26.6074 10.161 25.7285L10.0828 25.2531L10.5972 24.7323L11.1113 24.2182L10.4667 23.5735L9.82202 22.9224L9.81556 21.6529L9.8091 20.3833L10.4602 19.7258L11.1113 19.075L10.5384 18.5021C9.87438 17.8316 9.90702 18.0006 10.1022 16.2431L10.2389 15.0712L10.6751 14.6349L11.1048 14.1923L10.7859 13.8733L10.4735 13.548L10.5517 13.0726C10.6948 12.1873 10.6234 12.2067 11.281 12.8642L11.8603 13.4436L12.7848 12.5127L13.7157 11.5882L12.8042 10.6767C12.303 10.1755 11.8732 9.76512 11.8535 9.76512C11.8273 9.76512 11.6257 9.96708 11.4044 10.2207C11.0137 10.6634 11.0008 10.6831 10.8641 11.3601L10.7145 12.0435L10.4279 11.7439C9.38614 10.6699 7.45936 9.96028 5.05692 9.76478C4.60132 9.73214 4.21712 9.69984 4.2042 9.69984C4.19094 9.70018 4.13246 9.77192 4.07364 9.86304Z" fill="#F2C94C"/>
<path d="M21.0526 10.5662C20.5838 11.0415 20.1931 11.458 20.1931 11.4906C20.1931 11.5297 20.5967 11.9595 21.0914 12.4542L21.9832 13.346L22.6211 12.7082L23.2524 12.07L23.0896 11.3278L22.9267 10.5791L22.4912 10.1429C22.2505 9.89535 22.0223 9.70019 21.9836 9.70019C21.9445 9.70019 21.5276 10.0908 21.0526 10.5662Z" fill="#F2C94C"/>
<path d="M16.0722 10.729L15.1804 11.6208L16.0267 12.4671L16.8729 13.3134L17.7845 12.4018L18.696 11.4903L17.8691 10.6634C17.4135 10.2013 17.0229 9.83005 17.0032 9.83005C16.9834 9.83005 16.5669 10.234 16.0722 10.729Z" fill="#F2C94C"/>
<path d="M18.5461 13.1376C18.0579 13.6258 17.6543 14.0491 17.6543 14.0749C17.6543 14.127 19.425 15.8848 19.477 15.8848C19.4964 15.8848 19.9133 15.4812 20.408 14.9865L21.2998 14.0947L20.3689 13.1637L19.4444 12.2393L18.5461 13.1376Z" fill="#F2C94C"/>
<path d="M13.5202 13.2811L12.6086 14.1926L13.4549 15.0389L14.3012 15.8851L15.2127 14.9736L16.1242 14.0621L15.278 13.2158L14.4317 12.3695L13.5202 13.2811Z" fill="#F2C94C"/>
<path d="M15.9286 15.7549L15.0171 16.6665L15.948 17.5974L16.8725 18.5219L17.7969 17.5974L18.7279 16.6665L17.8163 15.7549C17.3152 15.2538 16.8919 14.8434 16.8725 14.8434C16.8534 14.8434 16.4301 15.2534 15.9286 15.7549Z" fill="#F2C94C"/>
<path d="M10.9944 15.807L10.1675 16.6338L11.0137 17.4801L11.86 18.3264L12.7063 17.4801L13.5525 16.6338L12.7256 15.807C12.27 15.3446 11.8797 14.9736 11.86 14.9736C11.8406 14.9736 11.45 15.3446 10.9944 15.807Z" fill="#F2C94C"/>
<path d="M13.4549 18.2287L12.6086 19.075L13.5202 19.9865L14.4317 20.8981L15.278 20.0518L16.1242 19.2056L15.2127 18.294L14.3015 17.3825L13.4549 18.2287Z" fill="#F2C94C"/>
<path d="M10.9162 20.7675L10.0046 21.6791L10.9162 22.5906L11.8277 23.5021L12.7522 22.5777L13.6831 21.6468L12.7909 20.7546C12.2962 20.2599 11.8794 19.8563 11.86 19.8563C11.8406 19.8563 11.4173 20.2664 10.9162 20.7675Z" fill="#F2C94C"/>
</svg>
