<svg width="16" height="20" viewBox="0 0 16 20" fill="none" xmlns="http://www.w3.org/2000/svg">
<path d="M15.4181 17.6562H13.6727V16.4062H14.4504C14.7717 16.4062 15.0322 16.1439 15.0322 15.8203C15.0322 15.4967 14.7717 15.2344 14.4504 15.2344H13.6727V14.0625H15.2261C15.5475 14.0625 15.808 13.8002 15.808 13.4766C15.808 13.153 15.5475 12.8906 15.2261 12.8906H13.6727V11.7188H14.4504C14.7717 11.7188 15.0322 11.4564 15.0322 11.1328C15.0322 10.8092 14.7717 10.5469 14.4504 10.5469H13.6727V9.375H15.2261C15.5475 9.375 15.808 9.11266 15.808 8.78906C15.808 8.46547 15.5475 8.20312 15.2261 8.20312H13.6727V7.03125H14.4504C14.7717 7.03125 15.0322 6.76891 15.0322 6.44531C15.0322 6.12172 14.7717 5.85938 14.4504 5.85938H13.6727V4.6875H15.2261C15.5475 4.6875 15.808 4.42516 15.808 4.10156C15.808 3.77797 15.5475 3.51562 15.2261 3.51562H13.6727V2.34375H14.4504C14.7717 2.34375 15.0322 2.08141 15.0322 1.75781C15.0322 1.43422 14.7717 1.17188 14.4504 1.17188H13.6727V0.585938C13.6727 0.262344 13.4122 0 13.0909 0C12.7695 0 12.509 0.262344 12.509 0.585938V17.6562H10.4084L10.6556 13.6719H6.22087L6.46814 17.6562H3.78177C3.46045 17.6562 3.19995 17.9186 3.19995 18.2422V19.4141C3.19995 19.7377 3.46045 20 3.78177 20C4.10309 20 4.36359 19.7377 4.36359 19.4141V18.8281H14.8363V19.4141C14.8363 19.7377 15.0968 20 15.4181 20C15.7395 20 16 19.7377 16 19.4141V18.2422C16 17.9186 15.7395 17.6562 15.4181 17.6562Z" fill="#2D9CDB"/>
<path d="M8.3999 5C9.50447 5 10.3999 4.32843 10.3999 3.5C10.3999 2.67157 9.50447 2 8.3999 2C7.29533 2 6.3999 2.67157 6.3999 3.5C6.3999 4.32843 7.29533 5 8.3999 5Z" fill="#2D9CDB"/>
<path d="M6.16004 12H10.6397C10.949 12 11.1999 11.763 11.1999 11.4706V7.94046C11.1999 7.17482 10.8536 6.48443 10.3018 6.00085C9.22643 6.94175 7.57358 6.94118 6.49888 6C5.94646 6.48365 5.59985 7.1744 5.59985 7.94046V11.4706C5.59985 11.763 5.85063 12 6.16004 12Z" fill="#2D9CDB"/>
</svg>
