<svg width="16" height="20" viewBox="0 0 16 20" fill="none" xmlns="http://www.w3.org/2000/svg">
<path d="M2.01002 19.8H13.988C14.934 19.8 15.7 19.038 15.7 18.098V9.58795C15.7 8.67395 14.974 7.93395 14.064 7.89395H13.134V7.88595H13.132C13.132 7.88595 13.132 5.51595 13.126 5.17395C13.064 2.41595 10.8 0.199951 8.01401 0.199951C5.18801 0.199951 2.89601 2.42195 2.89601 5.29195C2.89601 5.58795 3.00001 6.23595 3.80201 6.19595C4.60401 6.15595 4.61601 5.38995 4.60601 5.00595C4.77001 3.27995 6.22601 1.92995 8.00601 1.92995C9.88601 1.92995 11.41 3.43995 11.422 5.30595H11.432C11.432 5.30795 11.432 5.30995 11.432 5.31195L11.426 7.88995L2.00401 7.88395C1.08802 7.88795 0.348016 8.60795 0.308016 9.51195L0.302015 18.106C0.306015 19.042 1.06802 19.8 2.01002 19.8ZM3.72201 9.58795C3.72201 9.58795 11.422 9.59995 12.278 9.59995C13.132 9.59995 13.99 9.94595 13.99 11.31C13.99 11.31 13.99 14.37 13.99 16.382C13.99 17.6859 13.604 18.104 12.296 18.104C9.34801 18.104 3.58201 18.1 3.58201 18.1C2.35801 18.078 2.02401 17.7719 2.01201 16.452L2.01602 11.12C2.05001 9.85395 2.41601 9.58795 3.72201 9.58795Z" fill="white"/>
</svg>
