<svg width="14" height="14" viewBox="0 0 14 14" fill="none" xmlns="http://www.w3.org/2000/svg">
<path d="M13.8516 11.3372C13.7592 10.864 12.8996 10.6176 12.0498 10.6176C12.0372 10.6176 12.026 10.6176 12.0134 10.6176V10.234V9.51864V8.80323C12.0134 8.27403 11.102 7.99823 10.2032 7.99823C9.30441 7.99823 8.39301 8.27543 8.39301 8.80323V9.51864V10.234V10.9494V11.6648C8.39301 12.194 9.30441 12.4698 10.2032 12.4698C10.2158 12.4698 10.227 12.4698 10.2396 12.4698V12.8534C10.2396 13.3826 11.151 13.6584 12.0498 13.6584C12.95 13.6584 13.8614 13.3812 13.8614 12.8534V12.138V11.4226V11.3372H13.8516ZM12.0498 13.3448C11.1342 13.3448 10.549 13.0536 10.549 12.852C10.549 12.7974 10.5924 12.7372 10.6722 12.677C11.0208 12.852 11.5374 12.9416 12.0498 12.9416C12.5622 12.9416 13.0774 12.852 13.4274 12.677C13.5072 12.7372 13.5506 12.7974 13.5506 12.852C13.5506 13.0536 12.9654 13.3448 12.0498 13.3448ZM8.70101 11.6648C8.70101 11.6102 8.74441 11.55 8.82421 11.4898C9.17421 11.6648 9.68941 11.7544 10.2018 11.7544C10.2144 11.7544 10.2256 11.7544 10.2382 11.7544V12.138V12.1562C10.2256 12.1562 10.2144 12.1576 10.2018 12.1576C9.28621 12.1562 8.70101 11.865 8.70101 11.6648ZM13.258 12.4096C13.1936 12.4404 13.1208 12.4684 13.0382 12.495C12.7862 12.5734 12.4488 12.6294 12.0498 12.6294C11.6508 12.6294 11.3134 12.5734 11.0614 12.495C10.9858 12.4712 10.9186 12.446 10.8584 12.4194C10.8514 12.4166 10.8472 12.4138 10.8402 12.411C10.773 12.3802 10.717 12.3466 10.6722 12.313C10.6624 12.3046 10.6526 12.2976 10.6428 12.2892C10.584 12.2388 10.5504 12.1884 10.549 12.1422C10.549 12.1408 10.549 12.1394 10.549 12.138C10.549 12.0834 10.5924 12.0232 10.6722 11.963C10.7618 12.0078 10.8612 12.047 10.9676 12.0792C11.0376 12.1002 11.1104 12.1198 11.186 12.1366C11.2168 12.1436 11.2476 12.1492 11.2784 12.1562C11.3778 12.1758 11.48 12.1912 11.585 12.2024C11.634 12.208 11.683 12.2122 11.7334 12.2164C11.8384 12.2248 11.9448 12.2276 12.0512 12.2276C12.1576 12.2276 12.264 12.2234 12.369 12.2164C12.558 12.2024 12.7428 12.1758 12.915 12.138C13.1068 12.0946 13.2832 12.0372 13.4288 11.963C13.5086 12.0232 13.552 12.0834 13.552 12.138C13.552 12.1926 13.5086 12.2528 13.4288 12.313C13.3812 12.3452 13.3252 12.3788 13.258 12.4096ZM8.99362 11.2224C8.92641 11.1902 8.87041 11.158 8.82421 11.1244C8.74441 11.0642 8.70101 11.004 8.70101 10.9494C8.70101 10.8948 8.74441 10.8346 8.82421 10.7744C8.97121 10.8472 9.14621 10.906 9.33801 10.9494C9.51021 10.9872 9.69501 11.0138 9.88401 11.0278C9.98901 11.0348 10.0954 11.039 10.2018 11.039C10.2802 11.039 10.36 11.0376 10.4384 11.032C10.388 11.0754 10.346 11.123 10.3138 11.1734C10.2648 11.249 10.2382 11.3316 10.2382 11.4212V11.4394C10.2256 11.4394 10.2144 11.4408 10.2018 11.4408C9.80281 11.4408 9.46541 11.3848 9.21341 11.3064C9.13081 11.2812 9.05801 11.2518 8.99362 11.2224ZM8.70101 10.234C8.70101 10.1808 8.74441 10.1192 8.82421 10.059C8.96981 10.1318 9.14621 10.1906 9.33801 10.234C9.51021 10.2718 9.69501 10.2984 9.88401 10.3124C9.98901 10.3208 10.0954 10.3236 10.2018 10.3236C10.3082 10.3236 10.4146 10.3194 10.5196 10.3124C10.7086 10.2984 10.8934 10.2718 11.0656 10.234C11.2574 10.1906 11.4338 10.1332 11.5794 10.059C11.6592 10.1192 11.704 10.1794 11.704 10.234C11.704 10.2886 11.6606 10.3488 11.5808 10.409C11.536 10.4426 11.48 10.4762 11.4128 10.507C11.3484 10.5364 11.2756 10.5658 11.193 10.5924C10.941 10.6722 10.6036 10.7268 10.2046 10.7268C9.80561 10.7268 9.46821 10.6708 9.21621 10.5924C9.13361 10.5658 9.06081 10.5378 8.99641 10.507C8.92921 10.4748 8.87181 10.4426 8.82701 10.409C8.74441 10.3488 8.70101 10.2886 8.70101 10.234ZM8.70101 9.51864C8.70101 9.46544 8.74441 9.40384 8.82421 9.34363C8.97121 9.41644 9.14621 9.47523 9.33801 9.51864C9.51021 9.55784 9.69501 9.58304 9.88541 9.59704C9.99041 9.60404 10.0954 9.60824 10.2018 9.60824C10.3068 9.60824 10.4132 9.60404 10.5182 9.59704C10.7072 9.58304 10.8934 9.55644 11.0656 9.51864C11.2574 9.47523 11.4338 9.41784 11.5794 9.34363C11.6592 9.40384 11.704 9.46404 11.704 9.51864C11.704 9.57324 11.6606 9.63344 11.5794 9.69364C11.5346 9.72724 11.4786 9.76084 11.4114 9.79164C11.347 9.82104 11.2742 9.85044 11.1916 9.87704C10.9396 9.95684 10.6022 10.0114 10.2032 10.0114C9.80421 10.0114 9.46681 9.95684 9.21481 9.87704C9.13221 9.85044 9.05801 9.82244 8.99501 9.79164C8.92781 9.75944 8.87181 9.72724 8.82701 9.69364C8.74441 9.63344 8.70101 9.57324 8.70101 9.51864ZM7.70701 11.2644L7.11621 10.6876C6.95101 10.5252 6.68781 10.5252 6.52121 10.6876L5.15061 12.0246L3.78001 10.6876C3.61481 10.5252 3.35161 10.5252 3.18501 10.6876L1.86341 11.9756L0.996815 11.13V1.94462C0.996815 1.53862 1.32301 1.20822 1.72481 1.20822C1.72761 1.20822 1.73041 1.20682 1.73461 1.20682C1.73881 1.20682 1.74301 1.20822 1.74721 1.20822H1.74861C2.17281 1.20962 2.51721 1.53862 2.51721 1.94462C2.51721 2.35062 2.17141 2.68102 1.74581 2.68102C1.50921 2.68102 1.31741 2.87562 1.31741 3.11362C1.31741 3.35302 1.50921 3.54762 1.74581 3.54762H9.29741V7.45923H10.1542V3.48882C10.8444 3.30262 11.354 2.68242 11.354 1.94462C11.354 1.06122 10.6232 0.341614 9.72581 0.341614H1.74581C1.74161 0.341614 1.73881 0.341614 1.73461 0.341614C1.73041 0.341614 1.72761 0.341614 1.72341 0.341614C0.851215 0.341614 0.140015 1.06122 0.140015 1.94462V11.3148C0.140015 11.4324 0.187615 11.5444 0.270215 11.627L1.56521 12.8898C1.73041 13.0522 1.99361 13.0522 2.16021 12.8898L3.48181 11.6018L4.85241 12.9388C5.01901 13.1012 5.28081 13.1012 5.44741 12.9388L6.81801 11.6018L7.70701 12.4684V11.2644ZM3.19201 1.20822H9.72721C10.1528 1.20822 10.4986 1.53862 10.4986 1.94462C10.4986 2.35062 10.1528 2.68102 9.72721 2.68102H3.19201C3.30821 2.45982 3.37401 2.20922 3.37401 1.94462C3.37541 1.67862 3.30961 1.42802 3.19201 1.20822ZM3.74921 4.69282H2.79161C2.70341 4.69282 2.63201 4.76562 2.63201 4.85382V5.80303C2.63201 5.89263 2.70341 5.96403 2.79161 5.96403H3.74921C3.83741 5.96403 3.90881 5.89123 3.90881 5.80303V4.85382C3.90881 4.76562 3.83741 4.69282 3.74921 4.69282ZM3.74921 6.45123H2.79161C2.70341 6.45123 2.63201 6.52403 2.63201 6.61363V7.54323C2.63201 7.63283 2.70341 7.70423 2.79161 7.70423H3.74921C3.83741 7.70423 3.90881 7.63143 3.90881 7.54323V6.61363C3.90881 6.52263 3.83741 6.45123 3.74921 6.45123ZM3.74921 8.18863H2.79161C2.70341 8.18863 2.63201 8.26143 2.63201 8.34963V9.29883C2.63201 9.38844 2.70341 9.45984 2.79161 9.45984H3.74921C3.83741 9.45984 3.90881 9.38704 3.90881 9.29883V8.34963C3.90881 8.26143 3.83741 8.18863 3.74921 8.18863ZM7.28141 4.69282H4.50941C4.42121 4.69282 4.34981 4.76562 4.34981 4.85382V5.80303C4.34981 5.89263 4.42121 5.96403 4.50941 5.96403H7.28141C7.36961 5.96403 7.44101 5.89123 7.44101 5.80303V4.85382C7.44101 4.76562 7.36961 4.69282 7.28141 4.69282ZM7.28141 6.45123H4.50941C4.42121 6.45123 4.34981 6.52403 4.34981 6.61363V7.54323C4.34981 7.63283 4.42121 7.70423 4.50941 7.70423H7.28141C7.36961 7.70423 7.44101 7.63143 7.44101 7.54323V6.61363C7.44101 6.52263 7.36961 6.45123 7.28141 6.45123ZM7.28141 8.18863H4.50941C4.42121 8.18863 4.34981 8.26143 4.34981 8.34963V9.29883C4.34981 9.38844 4.42121 9.45984 4.50941 9.45984H7.28141C7.36961 9.45984 7.44101 9.38704 7.44101 9.29883V8.34963C7.44101 8.26143 7.36961 8.18863 7.28141 8.18863Z" fill="#2D9CDB"/>
</svg>
