<svg width="14" height="14" viewBox="0 0 14 14" fill="none" xmlns="http://www.w3.org/2000/svg">
<path d="M5.64196 3.55181H5.53976C5.85056 3.18921 6.04096 2.72161 6.04096 2.20781C6.04096 1.06681 5.11276 0.140015 3.97456 0.140015C2.83496 0.140015 1.90816 1.06681 1.90816 2.20641C1.90816 2.72021 2.09716 3.18921 2.40936 3.55041H2.30716C1.73176 3.55041 1.26416 4.01941 1.26416 4.59341V8.02201C1.26416 8.59741 1.73176 9.06501 2.30716 9.06501H2.34776V12.8142C2.34776 13.4092 2.65996 13.8572 3.07576 13.8572H4.87616C5.29196 13.8572 5.60556 13.4092 5.60556 12.8142V9.06641H5.64476C6.22016 9.06641 6.68776 8.59881 6.68776 8.02341V4.59481C6.68636 4.01941 6.21736 3.55181 5.64196 3.55181Z" fill="#2D9CDB"/>
<path d="M11.6942 3.55181H11.592C11.9028 3.18921 12.0932 2.72161 12.0932 2.20781C12.0932 1.06681 11.165 0.140015 10.0254 0.140015C8.8858 0.140015 7.959 1.06681 7.959 2.20641C7.959 2.72021 8.1494 3.18921 8.4602 3.55041H8.358C7.7826 3.55041 7.315 4.01941 7.315 4.59341V8.02201C7.315 8.59741 7.7826 9.06501 8.358 9.06501H8.3972V12.8142C8.3972 13.4092 8.7108 13.8572 9.1252 13.8572H10.9256C11.3414 13.8572 11.655 13.4092 11.655 12.8142V9.06641H11.6956C12.271 9.06641 12.7386 8.59881 12.7386 8.02341V4.59481C12.7372 4.01941 12.2696 3.55181 11.6942 3.55181Z" fill="#2D9CDB"/>
</svg>
