<svg width="25" height="25" viewBox="0 0 25 25" fill="none" xmlns="http://www.w3.org/2000/svg">
<path d="M24.6125 14.7725L22.1425 10.5L21.9975 10.3075C21.825 10.1175 21.5925 9.99497 21.335 9.97247C21.0025 9.94747 20.6775 10.0775 20.4625 10.335L17.1825 14.2475C16.82 14.68 16.875 15.3225 17.3075 15.685C17.74 16.0475 18.385 15.9925 18.745 15.56L20.2325 13.79C19.6675 16.6825 17.3575 19.2425 14.31 19.9575C11.73 20.565 9.05999 19.8075 7.16999 17.94C6.76999 17.5425 6.12249 17.545 5.72749 17.9475C5.32999 18.3475 5.33499 18.995 5.73499 19.39C7.58499 21.2175 10.0225 22.2025 12.5425 22.2025C13.285 22.2025 14.035 22.1175 14.7775 21.9425C18.4575 21.08 21.2875 18.0625 22.1425 14.58L22.845 15.7975C23.035 16.125 23.3775 16.3075 23.73 16.3075C23.9025 16.3075 24.08 16.2625 24.24 16.17C24.7275 15.885 24.895 15.2625 24.6125 14.7725ZM7.81999 10.3475C7.38749 9.98497 6.74499 10.04 6.38249 10.475L4.62249 12.5725C4.65499 11.265 5.02749 9.96997 5.72999 8.79747C6.86499 6.90497 8.71999 5.53747 10.8175 5.04497C13.5675 4.39997 16.44 5.31747 18.3125 7.43997C18.685 7.86247 19.33 7.90247 19.7525 7.52997C20.175 7.15747 20.215 6.51247 19.8425 6.08997C17.4725 3.40247 13.835 2.23997 10.35 3.05747C7.71749 3.67247 5.39499 5.38247 3.97749 7.74497C3.33999 8.80747 2.92749 9.95247 2.72249 11.125L2.14499 10.1625C1.85499 9.67997 1.22749 9.52247 0.742492 9.81247C0.259992 10.1025 0.102492 10.73 0.392492 11.2125L3.00749 15.5625C3.17749 15.845 3.47249 16.03 3.80249 16.055L3.88249 16.0575C4.18249 16.0575 4.46999 15.925 4.66499 15.6925L7.94499 11.7825C8.30749 11.3525 8.25249 10.7075 7.81999 10.3475Z" fill="#F2F2F2"/>
</svg>
